<svg xmlns="http://www.w3.org/2000/svg" viewBox="0 0 64 64" width="64" height="64">
  <!-- LANE FOUR goggles mark (square, for browser tabs and Google Search).
       Vector art matches the nav logo-mark in index.html. -->
  <rect width="64" height="64" rx="14" fill="#082622"/>
  <g transform="translate(-1,23) scale(0.549)">
    <defs>
      <radialGradient id="fav-slg" cx="40%" cy="45%" r="60%"><stop offset="0%" stop-color="#1a7a6e"/><stop offset="100%" stop-color="#091f1c"/></radialGradient>
      <radialGradient id="fav-srg" cx="60%" cy="45%" r="60%"><stop offset="0%" stop-color="#1a7a6e"/><stop offset="100%" stop-color="#091f1c"/></radialGradient>
      <clipPath id="fav-sll"><path d="M52 16.5 C51 10 41 2 25 2 C14 2 9 8 9 16.5 C9 25 14 31 25 31 C41 31 51 23 52 16.5 Z"/></clipPath>
      <clipPath id="fav-srl"><path d="M68 16.5 C69 10 79 2 95 2 C106 2 111 8 111 16.5 C111 25 106 31 95 31 C79 31 69 23 68 16.5 Z"/></clipPath>
    </defs>
    <path d="M52 16.5 C51 10 41 2 25 2 C14 2 9 8 9 16.5 C9 25 14 31 25 31 C41 31 51 23 52 16.5 Z" fill="url(#fav-slg)"/>
    <path d="M68 16.5 C69 10 79 2 95 2 C106 2 111 8 111 16.5 C111 25 106 31 95 31 C79 31 69 23 68 16.5 Z" fill="url(#fav-srg)"/>
    <g clip-path="url(#fav-sll)">
      <line x1="18" y1="6" x2="30" y2="20" stroke="#a8ede5" stroke-width="1.1" opacity="0.7"/>
      <line x1="22" y1="5" x2="34" y2="19" stroke="#a8ede5" stroke-width="1.1" opacity="0.7"/>
      <path d="M10 19 Q18 12 28 16 Q34 18 40 14" stroke="#a8ede5" stroke-width="1.4" stroke-linecap="round" fill="none" opacity="0.85"/>
      <circle cx="38" cy="10" r="3.5" fill="#a8ede5" opacity="0.25"/>
      <path d="M14 13 Q20 9 28 12" stroke="#a8ede5" stroke-width="0.8" stroke-linecap="round" fill="none" opacity="0.5"/>
    </g>
    <g clip-path="url(#fav-srl)">
      <line x1="78" y1="20" x2="90" y2="6" stroke="#a8ede5" stroke-width="1.1" opacity="0.7"/>
      <line x1="82" y1="19" x2="94" y2="5" stroke="#a8ede5" stroke-width="1.1" opacity="0.7"/>
      <path d="M70 14 Q76 18 86 16 Q96 12 104 19" stroke="#a8ede5" stroke-width="1.4" stroke-linecap="round" fill="none" opacity="0.85"/>
      <circle cx="72" cy="10" r="3.5" fill="#a8ede5" opacity="0.25"/>
      <path d="M82 12 Q90 9 96 13" stroke="#a8ede5" stroke-width="0.8" stroke-linecap="round" fill="none" opacity="0.5"/>
    </g>
    <path d="M52 16.5 C51 10 41 2 25 2 C14 2 9 8 9 16.5 C9 25 14 31 25 31 C41 31 51 23 52 16.5 Z" stroke="#5ddbc9" stroke-width="2.2" fill="none"/>
    <path d="M68 16.5 C69 10 79 2 95 2 C106 2 111 8 111 16.5 C111 25 106 31 95 31 C79 31 69 23 68 16.5 Z" stroke="#5ddbc9" stroke-width="2.2" fill="none"/>
    <path d="M53 16.5 Q60 17.3 67 16.5" stroke="#5ddbc9" stroke-width="2" stroke-linecap="round" fill="none"/>
  </g>
</svg>
