<svg xmlns="http://www.w3.org/2000/svg" viewBox="0 0 120 35" fill="none">
  <defs>
    <radialGradient id="slg" cx="40%" cy="45%" r="60%">
      <stop offset="0%" stop-color="#1a7a6e"/>
      <stop offset="100%" stop-color="#091f1c"/>
    </radialGradient>
    <radialGradient id="srg" cx="60%" cy="45%" r="60%">
      <stop offset="0%" stop-color="#1a7a6e"/>
      <stop offset="100%" stop-color="#091f1c"/>
    </radialGradient>
    <clipPath id="sll">
      <path d="M52 17.5 C51 11 41 3 25 3 C14 3 9 9 9 17.5 C9 26 14 32 25 32 C41 32 51 24 52 17.5 Z"/>
    </clipPath>
    <clipPath id="srl">
      <path d="M68 17.5 C69 11 79 3 95 3 C106 3 111 9 111 17.5 C111 26 106 32 95 32 C79 32 69 24 68 17.5 Z"/>
    </clipPath>
  </defs>
  <path d="M52 17.5 C51 11 41 3 25 3 C14 3 9 9 9 17.5 C9 26 14 32 25 32 C41 32 51 24 52 17.5 Z" fill="url(#slg)"/>
  <path d="M68 17.5 C69 11 79 3 95 3 C106 3 111 9 111 17.5 C111 26 106 32 95 32 C79 32 69 24 68 17.5 Z" fill="url(#srg)"/>
  <g clip-path="url(#sll)">
    <path d="M10 20 Q18 13 28 17 Q34 19 40 15" stroke="#a8ede5" stroke-width="1.4" stroke-linecap="round" fill="none" opacity="0.85"/>
  </g>
  <g clip-path="url(#srl)">
    <path d="M70 15 Q76 19 86 17 Q96 13 104 20" stroke="#a8ede5" stroke-width="1.4" stroke-linecap="round" fill="none" opacity="0.85"/>
  </g>
  <path d="M52 17.5 C51 11 41 3 25 3 C14 3 9 9 9 17.5 C9 26 14 32 25 32 C41 32 51 24 52 17.5 Z" stroke="#5ddbc9" stroke-width="2.2" fill="none"/>
  <path d="M68 17.5 C69 11 79 3 95 3 C106 3 111 9 111 17.5 C111 26 106 32 95 32 C79 32 69 24 68 17.5 Z" stroke="#5ddbc9" stroke-width="2.2" fill="none"/>
  <path d="M53 17.5 Q60 18.3 67 17.5" stroke="#5ddbc9" stroke-width="2" stroke-linecap="round" fill="none"/>
</svg>
